<svg width="12" height="12" viewBox="0 0 12 12" fill="none" xmlns="http://www.w3.org/2000/svg">
<rect width="12" height="12" rx="2" fill="#626A67"/>
<g clip-path="url(#clip0_3003_17147)">
<path d="M6.6274 4.8974L5.9974 5.5274L5.3674 4.8974C5.2374 4.7674 5.0274 4.7674 4.8974 4.8974C4.7674 5.0274 4.7674 5.2374 4.8974 5.3674L5.5274 5.9974L4.8974 6.6274C4.7674 6.7574 4.7674 6.9674 4.8974 7.0974C5.0274 7.2274 5.2374 7.2274 5.3674 7.0974L5.9974 6.4674L6.6274 7.0974C6.7574 7.2274 6.9674 7.2274 7.0974 7.0974C7.2274 6.9674 7.2274 6.7574 7.0974 6.6274L6.4674 5.9974L7.0974 5.3674C7.2274 5.2374 7.2274 5.0274 7.0974 4.8974C6.9674 4.77073 6.75406 4.77073 6.6274 4.8974ZM5.9974 2.66406C4.15406 2.66406 2.66406 4.15406 2.66406 5.9974C2.66406 7.84073 4.15406 9.33073 5.9974 9.33073C7.84073 9.33073 9.33073 7.84073 9.33073 5.9974C9.33073 4.15406 7.84073 2.66406 5.9974 2.66406ZM5.9974 8.66406C4.5274 8.66406 3.33073 7.4674 3.33073 5.9974C3.33073 4.5274 4.5274 3.33073 5.9974 3.33073C7.4674 3.33073 8.66406 4.5274 8.66406 5.9974C8.66406 7.4674 7.4674 8.66406 5.9974 8.66406Z" fill="#ECEEED"/>
</g>
<defs>
<clipPath id="clip0_3003_17147">
<rect width="8" height="8" fill="white" transform="translate(2 2)"/>
</clipPath>
</defs>
</svg>
