<svg width="16" height="16" viewBox="0 0 16 16" fill="none" xmlns="http://www.w3.org/2000/svg">
<g clip-path="url(#clip0_1345_22049)">
<rect width="15" height="15" transform="translate(0.5 0.5)" fill="white"/>
<path d="M8.16582 3.47126C8.1222 3.42954 8.06417 3.40625 8.00381 3.40625C7.94345 3.40625 7.88541 3.42954 7.84179 3.47126L2.44824 8.6237C2.42534 8.64561 2.40711 8.67194 2.39468 8.7011C2.38224 8.73026 2.37584 8.76163 2.37588 8.79333L2.375 13.6291C2.375 13.8777 2.47377 14.1162 2.64959 14.292C2.8254 14.4678 3.06386 14.5666 3.3125 14.5666H6.12793C6.25225 14.5666 6.37148 14.5172 6.45938 14.4293C6.54729 14.3414 6.59668 14.2221 6.59668 14.0978V10.1134C6.59668 10.0513 6.62137 9.99167 6.66532 9.94772C6.70928 9.90376 6.76889 9.87907 6.83105 9.87907H9.1748C9.23696 9.87907 9.29658 9.90376 9.34053 9.94772C9.38448 9.99167 9.40918 10.0513 9.40918 10.1134V14.0978C9.40918 14.2221 9.45856 14.3414 9.54647 14.4293C9.63438 14.5172 9.75361 14.5666 9.87793 14.5666H12.6922C12.9408 14.5666 13.1793 14.4678 13.3551 14.292C13.5309 14.1162 13.6297 13.8777 13.6297 13.6291V8.79333C13.6297 8.76163 13.6233 8.73026 13.6109 8.7011C13.5984 8.67194 13.5802 8.64561 13.5573 8.6237L8.16582 3.47126Z" fill="#183F30"/>
<path d="M14.8821 7.65283L12.6907 5.55635V2.375C12.6907 2.25068 12.6413 2.13145 12.5534 2.04354C12.4655 1.95564 12.3463 1.90625 12.222 1.90625H10.8157C10.6914 1.90625 10.5722 1.95564 10.4843 2.04354C10.3964 2.13145 10.347 2.25068 10.347 2.375V3.3125L8.65011 1.69004C8.49132 1.52949 8.25518 1.4375 8.00001 1.4375C7.74571 1.4375 7.51016 1.52949 7.35138 1.69033L1.11993 7.65225C0.937706 7.82803 0.914855 8.11719 1.08068 8.30762C1.12232 8.35568 1.1733 8.39477 1.23053 8.42251C1.28776 8.45025 1.35003 8.46605 1.41356 8.46896C1.47709 8.47186 1.54054 8.46181 1.60006 8.43941C1.65958 8.41701 1.71392 8.38274 1.75978 8.33867L7.83888 2.52969C7.88249 2.48796 7.94053 2.46468 8.00089 2.46468C8.06125 2.46468 8.11928 2.48796 8.1629 2.52969L14.2426 8.33867C14.3321 8.42455 14.4521 8.47142 14.5762 8.46901C14.7002 8.46659 14.8183 8.41509 14.9044 8.32578C15.0843 8.13945 15.0693 7.83183 14.8821 7.65283Z" fill="#183F30"/>
</g>
<defs>
<clipPath id="clip0_1345_22049">
<rect width="15" height="15" fill="white" transform="translate(0.5 0.5)"/>
</clipPath>
</defs>
</svg>
