<svg width="10" height="10" viewBox="0 0 10 10" fill="none" xmlns="http://www.w3.org/2000/svg">
<path d="M7 2V5C7 5.55 7.45 6 8 6H8.5V9.5C8.5 9.775 8.725 10 9 10C9.275 10 9.5 9.775 9.5 9.5V0.565C9.5 0.24 9.195 4.47035e-08 8.88 0.075C7.8 0.34 7 1.255 7 2ZM4.5 3.5H3.5V0.5C3.5 0.225 3.275 0 3 0C2.725 0 2.5 0.225 2.5 0.5V3.5H1.5V0.5C1.5 0.225 1.275 0 1 0C0.725 0 0.5 0.225 0.5 0.5V3.5C0.5 4.605 1.395 5.5 2.5 5.5V9.5C2.5 9.775 2.725 10 3 10C3.275 10 3.5 9.775 3.5 9.5V5.5C4.605 5.5 5.5 4.605 5.5 3.5V0.5C5.5 0.225 5.275 0 5 0C4.725 0 4.5 0.225 4.5 0.5V3.5Z" fill="#626A67"/>
</svg>
