<svg width="13" height="14" viewBox="0 0 13 14" fill="none" xmlns="http://www.w3.org/2000/svg">
<path d="M0.75 1.80693C0.75 1.4686 0.868526 1.14412 1.0795 0.904887C1.29048 0.665651 1.57663 0.53125 1.875 0.53125L3.375 0.53125C3.67337 0.53125 3.95952 0.665651 4.1705 0.904887C4.38147 1.14412 4.5 1.4686 4.5 1.80693V3.50783C4.5 3.84616 4.38147 4.17063 4.1705 4.40987C3.95952 4.6491 3.67337 4.7835 3.375 4.7835H1.875C1.57663 4.7835 1.29048 4.6491 1.0795 4.40987C0.868526 4.17063 0.75 3.84616 0.75 3.50783L0.75 1.80693ZM1.875 1.3817C1.77554 1.3817 1.68016 1.4265 1.60983 1.50625C1.53951 1.58599 1.5 1.69415 1.5 1.80693V3.50783C1.5 3.6206 1.53951 3.72876 1.60983 3.80851C1.68016 3.88825 1.77554 3.93305 1.875 3.93305H3.375C3.47446 3.93305 3.56984 3.88825 3.64016 3.80851C3.71049 3.72876 3.75 3.6206 3.75 3.50783V1.80693C3.75 1.69415 3.71049 1.58599 3.64016 1.50625C3.56984 1.4265 3.47446 1.3817 3.375 1.3817H1.875ZM0.75 7.33485C0.75 6.88375 0.908035 6.45112 1.18934 6.13213C1.47064 5.81315 1.85218 5.63395 2.25 5.63395H11.25C11.6478 5.63395 12.0294 5.81315 12.3107 6.13213C12.592 6.45112 12.75 6.88375 12.75 7.33485V11.5871C12.75 12.0382 12.592 12.4708 12.3107 12.7898C12.0294 13.1088 11.6478 13.288 11.25 13.288H2.25C1.85218 13.288 1.47064 13.1088 1.18934 12.7898C0.908035 12.4708 0.75 12.0382 0.75 11.5871V7.33485ZM1.5 9.8862V11.5871C1.5 11.8127 1.57902 12.029 1.71967 12.1885C1.86032 12.348 2.05109 12.4376 2.25 12.4376H11.25C11.4489 12.4376 11.6397 12.348 11.7803 12.1885C11.921 12.029 12 11.8127 12 11.5871V9.8862H1.5ZM12 9.03575V7.33485C12 7.1093 11.921 6.89298 11.7803 6.73349C11.6397 6.574 11.4489 6.4844 11.25 6.4844H6.75H2.25C2.05109 6.4844 1.86032 6.574 1.71967 6.73349C1.57902 6.89298 1.5 7.1093 1.5 7.33485V9.03575H12ZM2.25 7.76008C2.25 7.6473 2.28951 7.53914 2.35984 7.4594C2.43016 7.37965 2.52554 7.33485 2.625 7.33485H9.375C9.47446 7.33485 9.56984 7.37965 9.64017 7.4594C9.71049 7.53914 9.75 7.6473 9.75 7.76008C9.75 7.87286 9.71049 7.98101 9.64017 8.06076C9.56984 8.1405 9.47446 8.1853 9.375 8.1853H2.625C2.52554 8.1853 2.43016 8.1405 2.35984 8.06076C2.28951 7.98101 2.25 7.87286 2.25 7.76008ZM2.25 11.1619C2.25 11.0491 2.28951 10.9409 2.35984 10.8612C2.43016 10.7815 2.52554 10.7367 2.625 10.7367H7.125C7.22446 10.7367 7.31984 10.7815 7.39017 10.8612C7.46049 10.9409 7.5 11.0491 7.5 11.1619C7.5 11.2747 7.46049 11.3828 7.39017 11.4626C7.31984 11.5423 7.22446 11.5871 7.125 11.5871H2.625C2.52554 11.5871 2.43016 11.5423 2.35984 11.4626C2.28951 11.3828 2.25 11.2747 2.25 11.1619Z" fill="#183F30"/>
</svg>
