<svg width="31" height="33" viewBox="0 0 31 33" fill="none" xmlns="http://www.w3.org/2000/svg">
<rect x="0.75" y="0.757812" width="30" height="31.8919" rx="12" fill="#183F30"/>
<path d="M13.5928 11.9727C13.593 11.6232 13.4821 11.2798 13.2711 10.977C13.0601 10.6743 12.7565 10.4228 12.3908 10.2479C12.0251 10.073 11.6102 9.98088 11.1879 9.98075C10.7655 9.98063 10.3506 10.0725 9.98472 10.2472C9.61889 10.4219 9.31507 10.6732 9.10382 10.9758C8.89256 11.2785 8.78131 11.6218 8.78125 11.9713C8.78119 12.3209 8.89233 12.6642 9.10348 12.9669C9.31464 13.2696 9.61837 13.521 9.98414 13.6958V20.2041C9.5255 20.4232 9.16705 20.7614 8.96438 21.1663C8.76171 21.5712 8.72616 22.0201 8.86323 22.4435C9.0003 22.8668 9.30233 23.2409 9.72249 23.5077C10.1426 23.7745 10.6574 23.9191 11.187 23.9191C11.7166 23.9191 12.2314 23.7745 12.6516 23.5077C13.0717 23.2409 13.3738 22.8668 13.5108 22.4435C13.6479 22.0201 13.6124 21.5712 13.4097 21.1663C13.207 20.7614 12.8486 20.4232 12.3899 20.2041V13.6958C12.7555 13.5211 13.059 13.27 13.2702 12.9675C13.4813 12.6651 13.5926 12.322 13.5928 11.9727ZM11.187 10.9773C11.4249 10.9773 11.6575 11.0357 11.8553 11.1451C12.0531 11.2544 12.2073 11.4099 12.2984 11.5918C12.3894 11.7737 12.4132 11.9738 12.3668 12.1669C12.3204 12.36 12.2058 12.5374 12.0376 12.6766C11.8694 12.8158 11.655 12.9106 11.4217 12.949C11.1884 12.9875 10.9465 12.9677 10.7267 12.8924C10.5069 12.8171 10.319 12.6895 10.1869 12.5258C10.0547 12.3621 9.98414 12.1696 9.98414 11.9727C9.98414 11.7087 10.1109 11.4555 10.3365 11.2689C10.562 11.0822 10.868 10.9773 11.187 10.9773ZM11.187 22.9225C10.9491 22.9225 10.7166 22.8641 10.5187 22.7548C10.3209 22.6454 10.1668 22.4899 10.0757 22.308C9.98466 22.1261 9.96084 21.926 10.0073 21.7329C10.0537 21.5398 10.1682 21.3624 10.3365 21.2232C10.5047 21.084 10.719 20.9892 10.9524 20.9508C11.1857 20.9124 11.4276 20.9321 11.6474 21.0074C11.8672 21.0828 12.055 21.2104 12.1872 21.3741C12.3194 21.5378 12.3899 21.7302 12.3899 21.9271C12.3899 22.1911 12.2632 22.4443 12.0376 22.631C11.812 22.8176 11.5061 22.9225 11.187 22.9225ZM22.0131 20.2041V13.8392C22.0121 13.0804 21.6474 12.353 20.999 11.8164C20.3507 11.2799 19.4716 10.9781 18.5547 10.9773H17.8029V9.98186C17.8029 9.88346 17.7676 9.78727 17.7015 9.70547C17.6354 9.62366 17.5415 9.5599 17.4316 9.52225C17.3217 9.4846 17.2009 9.47474 17.0842 9.49393C16.9676 9.51311 16.8605 9.56048 16.7763 9.63004L14.3706 11.6209C14.2579 11.7142 14.1945 11.8408 14.1945 11.9727C14.1945 12.1047 14.2579 12.2312 14.3706 12.3246L16.7763 14.3154C16.8605 14.385 16.9676 14.4324 17.0842 14.4515C17.2009 14.4707 17.3217 14.4609 17.4316 14.4232C17.5415 14.3856 17.6354 14.3218 17.7015 14.24C17.7676 14.1582 17.8029 14.062 17.8029 13.9636V12.9682H18.5547C18.8339 12.9682 19.1016 13.0599 19.299 13.2233C19.4964 13.3866 19.6073 13.6082 19.6073 13.8392V20.2041C19.1486 20.4232 18.7902 20.7614 18.5875 21.1663C18.3848 21.5712 18.3493 22.0201 18.4864 22.4435C18.6234 22.8668 18.9255 23.2409 19.3456 23.5077C19.7658 23.7745 20.2806 23.9191 20.8102 23.9191C21.3398 23.9191 21.8546 23.7745 22.2747 23.5077C22.6949 23.2409 22.9969 22.8668 23.134 22.4435C23.271 22.0201 23.2355 21.5712 23.0328 21.1663C22.8301 20.7614 22.4717 20.4232 22.0131 20.2041ZM20.8102 22.9225C20.5723 22.9225 20.3397 22.8641 20.1419 22.7548C19.9441 22.6454 19.7899 22.4899 19.6988 22.308C19.6078 22.1261 19.584 21.926 19.6304 21.7329C19.6768 21.5398 19.7914 21.3624 19.9596 21.2232C20.1278 21.084 20.3422 20.9892 20.5755 20.9508C20.8088 20.9124 21.0507 20.9321 21.2705 21.0074C21.4903 21.0828 21.6782 21.2104 21.8103 21.3741C21.9425 21.5378 22.0131 21.7302 22.0131 21.9271C22.0131 22.1911 21.8863 22.4443 21.6607 22.631C21.4351 22.8176 21.1292 22.9225 20.8102 22.9225Z" fill="white"/>
</svg>
