<svg width="12" height="12" viewBox="0 0 12 12" fill="none" xmlns="http://www.w3.org/2000/svg">
<g clip-path="url(#clip0_3003_17156)">
<path d="M2.25 6C2.94036 6 3.5 5.44036 3.5 4.75C3.5 4.05964 2.94036 3.5 2.25 3.5C1.55964 3.5 1 4.05964 1 4.75C1 5.44036 1.55964 6 2.25 6Z" fill="#626A67"/>
<path d="M4.5 4C5.19036 4 5.75 3.44036 5.75 2.75C5.75 2.05964 5.19036 1.5 4.5 1.5C3.80964 1.5 3.25 2.05964 3.25 2.75C3.25 3.44036 3.80964 4 4.5 4Z" fill="#626A67"/>
<path d="M7.5 4C8.19036 4 8.75 3.44036 8.75 2.75C8.75 2.05964 8.19036 1.5 7.5 1.5C6.80964 1.5 6.25 2.05964 6.25 2.75C6.25 3.44036 6.80964 4 7.5 4Z" fill="#626A67"/>
<path d="M9.75 6C10.4404 6 11 5.44036 11 4.75C11 4.05964 10.4404 3.5 9.75 3.5C9.05964 3.5 8.5 4.05964 8.5 4.75C8.5 5.44036 9.05964 6 9.75 6Z" fill="#626A67"/>
<path d="M8.67325 7.43C8.23825 6.92 7.87325 6.485 7.43325 5.975C7.20325 5.705 6.90825 5.435 6.55825 5.315C6.50325 5.295 6.44825 5.28 6.39325 5.27C6.26825 5.25 6.13325 5.25 6.00325 5.25C5.87325 5.25 5.73825 5.25 5.60825 5.275C5.55325 5.285 5.49825 5.3 5.44325 5.32C5.09325 5.44 4.80325 5.71 4.56825 5.98C4.13325 6.49 3.76825 6.925 3.32825 7.435C2.67325 8.09 1.86825 8.815 2.01825 9.83C2.16325 10.34 2.52825 10.845 3.18325 10.99C3.54825 11.065 4.71325 10.77 5.95325 10.77H6.04325C7.28325 10.77 8.44825 11.06 8.81325 10.99C9.46825 10.845 9.83325 10.335 9.97825 9.83C10.1332 8.81 9.32825 8.085 8.67325 7.43Z" fill="#626A67"/>
</g>
<defs>
<clipPath id="clip0_3003_17156">
<rect width="12" height="12" fill="white"/>
</clipPath>
</defs>
</svg>
