<svg width="15" height="16" viewBox="0 0 15 16" fill="none" xmlns="http://www.w3.org/2000/svg">
<path d="M9.74534 2.39199C9.17522 1.77646 8.37893 1.4375 7.50003 1.4375C6.61643 1.4375 5.81751 1.77441 5.25003 2.38613C4.6764 3.00459 4.3969 3.84512 4.46253 4.75273C4.59261 6.54336 5.9552 8 7.50003 8C9.04485 8 10.4051 6.54365 10.5372 4.75332C10.6037 3.85391 10.3225 3.01514 9.74534 2.39199Z" fill="#183F30"/>
<path d="M12.6564 14.5625H2.34392C2.20894 14.5643 2.07526 14.5359 1.95262 14.4795C1.82997 14.4231 1.72145 14.34 1.63493 14.2364C1.4445 14.0088 1.36775 13.6979 1.42458 13.3836C1.67185 12.0119 2.44353 10.8597 3.65642 10.0508C4.73396 9.33271 6.0989 8.9375 7.50016 8.9375C8.90143 8.9375 10.2664 9.33301 11.3439 10.0508C12.5568 10.8594 13.3285 12.0116 13.5757 13.3833C13.6326 13.6977 13.5558 14.0085 13.3654 14.2361C13.2789 14.3398 13.1704 14.4229 13.0478 14.4794C12.9251 14.5358 12.7914 14.5642 12.6564 14.5625V14.5625Z" fill="#183F30"/>
</svg>
