<svg width="15" height="15" viewBox="0 0 15 15" fill="none" xmlns="http://www.w3.org/2000/svg">
<path d="M5.44776 14.2981L5.14925 12.0104C4.98756 11.9509 4.83532 11.8794 4.69254 11.796C4.54975 11.7126 4.4097 11.6232 4.27239 11.5279L2.05224 12.4215L0 9.02569L1.92164 7.63163C1.9092 7.54822 1.90299 7.46791 1.90299 7.3907V6.90814C1.90299 6.83045 1.9092 6.74991 1.92164 6.6665L0 5.27244L2.05224 1.87663L4.27239 2.77026C4.4092 2.67494 4.55224 2.58558 4.70149 2.50217C4.85075 2.41877 5 2.34728 5.14925 2.2877L5.44776 0H9.55224L9.85075 2.2877C10.0124 2.34728 10.1649 2.41877 10.3082 2.50217C10.4515 2.58558 10.5913 2.67494 10.7276 2.77026L12.9478 1.87663L15 5.27244L13.0784 6.6665C13.0908 6.74991 13.097 6.83045 13.097 6.90814V7.38999C13.097 7.46767 13.0846 7.54822 13.0597 7.63163L14.9813 9.02569L12.9291 12.4215L10.7276 11.5279C10.5908 11.6232 10.4478 11.7126 10.2985 11.796C10.1493 11.8794 10 11.9509 9.85075 12.0104L9.55224 14.2981H5.44776ZM7.53731 9.65124C8.25871 9.65124 8.87438 9.40698 9.38433 8.91846C9.89428 8.42994 10.1493 7.84014 10.1493 7.14906C10.1493 6.45799 9.89428 5.86819 9.38433 5.37967C8.87438 4.89115 8.25871 4.64689 7.53731 4.64689C6.80348 4.64689 6.18458 4.89115 5.6806 5.37967C5.17662 5.86819 4.92488 6.45799 4.92537 7.14906C4.92587 7.84014 5.17786 8.42994 5.68134 8.91846C6.18483 9.40698 6.80348 9.65124 7.53731 9.65124Z" fill="#183F30"/>
</svg>
