<svg width="12" height="12" viewBox="0 0 12 12" fill="none" xmlns="http://www.w3.org/2000/svg">
<path d="M10.95 2.5H9V1C9 0.725 8.775 0.5 8.5 0.5C8.225 0.5 8 0.725 8 1V2.5H6.05C5.755 2.5 5.525 2.755 5.55 3.05L5.61 3.655C7.45 4.08 9 5.385 9 7.5L9.01 11.5H9.86C10.28 11.5 10.625 11.175 10.675 10.765L11.445 3.05C11.475 2.755 11.245 2.5 10.95 2.5ZM7.5 10.5H1C0.725 10.5 0.5 10.725 0.5 11C0.5 11.275 0.725 11.5 1 11.5H7.5C7.775 11.5 8 11.275 8 11C8 10.725 7.775 10.5 7.5 10.5ZM1.05 7.5H7.45C7.76 7.5 8.005 7.22 7.945 6.92C7.62 5.305 5.935 4.495 4.25 4.495C2.565 4.495 0.885 5.305 0.555 6.92C0.495 7.22 0.745 7.5 1.05 7.5ZM7.5 8.5H1C0.725 8.5 0.5 8.725 0.5 9C0.5 9.275 0.725 9.5 1 9.5H7.5C7.775 9.5 8 9.275 8 9C8 8.725 7.775 8.5 7.5 8.5Z" fill="#00664B"/>
</svg>
