<svg width="15" height="14" viewBox="0 0 15 14" fill="none" xmlns="http://www.w3.org/2000/svg">
<path d="M2.65385 0V10.2308C2.65385 10.5296 2.41423 10.7692 2.11538 10.7692C1.81654 10.7692 1.57692 10.5296 1.57692 10.2308V3.76923H2.11538V2.69231H0.5V10.2308C0.5 11.1165 1.22962 11.8462 2.11538 11.8462H7.5C7.39231 11.5231 7.33146 11.1462 7.33146 10.7692H3.63062C3.692 10.5991 3.73131 10.4208 3.73131 10.2308V1.07692H12.3467V7C12.7236 7.10769 13.1005 7.26923 13.4236 7.53846V0H2.65385ZM4.80769 2.15385V4.30769H11.2692V2.15385H4.80769ZM4.80769 5.38462V6.46154H7.5V5.38462H4.80769ZM8.57692 5.38462V6.46154H11.2692V5.38462H8.57692ZM4.80769 7V8.07692H7.5V7H4.80769ZM11.2692 7.53846C9.47939 7.53846 8.03846 8.97939 8.03846 10.7692C8.03846 12.5591 9.47939 14 11.2692 14V12.9231C10.0437 12.9231 9.11539 11.9948 9.11539 10.7692C9.11539 9.54369 10.0437 8.61539 11.2692 8.61539C12.4948 8.61539 13.4231 9.54369 13.4231 10.7692C13.4231 11.2366 13.2901 11.6685 13.0526 12.0147L12.3462 11.3077L12.0769 13.7308L14.5 13.4615L13.8269 12.7885C14.2744 12.2263 14.5 11.5107 14.5 10.7692C14.5 8.97939 13.0591 7.53846 11.2692 7.53846ZM4.80769 8.61539V9.69231H7.5V8.61539H4.80769Z" fill="#183F30"/>
</svg>
