<svg width="10" height="10" viewBox="0 0 10 10" fill="none" xmlns="http://www.w3.org/2000/svg">
<path d="M2.055 1.78061C2.65 1.85061 3.07 2.07061 3.5 2.50061L4 3.00061L2.375 4.62561C2.53 4.68561 2.655 4.76061 2.76 4.82061C2.945 4.93561 3.055 5.00061 3.335 5.00061C3.615 5.00061 3.725 4.93561 3.91 4.82061C4.14 4.68561 4.45 4.50061 5.005 4.50061C5.56 4.50061 5.87 4.68561 6.095 4.82061C6.28 4.93061 6.395 5.00061 6.67 5.00061C6.945 5.00061 7.06 4.93561 7.245 4.82061C7.305 4.78561 7.375 4.74561 7.45 4.70561L4.24 1.50061C3.61 0.870608 3.02 0.600608 2.15 0.525608C1.8 0.495608 1.5 0.780608 1.5 1.13061V1.17561C1.5 1.49061 1.745 1.74061 2.055 1.78061ZM9.675 8.45561C9.59 8.42561 9.515 8.38061 9.425 8.32061C9.2 8.18561 8.89 8.00061 8.335 8.00061C7.78 8.00061 7.47 8.18561 7.245 8.32061C7.06 8.43561 6.945 8.50061 6.67 8.50061C6.395 8.50061 6.28 8.43061 6.095 8.32061C5.87 8.18561 5.56 8.00061 5.005 8.00061C4.45 8.00061 4.14 8.18561 3.91 8.32061C3.725 8.43561 3.615 8.50061 3.335 8.50061C3.055 8.50061 2.945 8.43561 2.76 8.32061C2.535 8.18561 2.225 8.00061 1.67 8.00061C1.115 8.00061 0.805 8.18561 0.575 8.32061C0.485 8.37561 0.41 8.42061 0.325 8.45561C0.135 8.52061 0 8.68061 0 8.88061V8.94061C0 9.27561 0.33 9.50561 0.65 9.39561C0.835 9.33061 0.975 9.24561 1.095 9.17561C1.28 9.06561 1.395 9.00061 1.67 9.00061C1.945 9.00061 2.06 9.06561 2.245 9.18061C2.47 9.31561 2.78 9.50061 3.335 9.50061C3.89 9.50061 4.2 9.31561 4.43 9.18061C4.615 9.06561 4.725 9.00061 5.005 9.00061C5.28 9.00061 5.395 9.07061 5.58 9.18061C5.805 9.31561 6.115 9.50061 6.67 9.50061C7.225 9.50061 7.53 9.31561 7.76 9.18061C7.945 9.06561 8.055 9.00061 8.335 9.00061C8.61 9.00061 8.725 9.07061 8.91 9.18061C9.025 9.25061 9.165 9.33561 9.35 9.40061C9.665 9.51061 10 9.28061 10 8.94561V8.88561C10 8.68061 9.865 8.52061 9.675 8.45561ZM0.555 7.17561C0.79 7.11061 0.96 7.01061 1.1 6.93061C1.285 6.81561 1.4 6.75061 1.675 6.75061C1.95 6.75061 2.065 6.82061 2.25 6.93061C2.475 7.06561 2.785 7.25061 3.34 7.25061C3.895 7.25061 4.205 7.06561 4.43 6.93061C4.615 6.81561 4.725 6.75061 5.005 6.75061C5.28 6.75061 5.395 6.82061 5.58 6.93061C5.805 7.06561 6.115 7.25061 6.67 7.25061C7.225 7.25061 7.535 7.06561 7.76 6.93061C7.945 6.81561 8.055 6.75061 8.335 6.75061C8.61 6.75061 8.725 6.82061 8.91 6.93061C9.025 7.00061 9.16 7.08061 9.335 7.14561C9.65 7.26061 9.99 7.02561 9.99 6.69061V6.63061C9.99 6.43061 9.855 6.27061 9.67 6.20061C9.585 6.17061 9.51 6.12561 9.415 6.07061C9.19 5.93561 8.88 5.75061 8.325 5.75061C7.77 5.75061 7.46 5.93561 7.235 6.07061C7.05 6.18561 6.935 6.25061 6.66 6.25061C6.385 6.25061 6.27 6.18061 6.085 6.07061C5.86 5.93561 5.55 5.75061 4.995 5.75061C4.44 5.75061 4.13 5.93561 3.905 6.07061C3.72 6.18561 3.61 6.25061 3.33 6.25061C3.055 6.25061 2.94 6.18061 2.755 6.07061C2.53 5.93561 2.22 5.75061 1.665 5.75061C1.11 5.75061 0.8 5.93561 0.575 6.07061C0.485 6.12561 0.41 6.17061 0.325 6.20561C0.135 6.27061 0 6.43061 0 6.63061V6.74561C0 7.03561 0.275 7.25561 0.555 7.17561Z" fill="#00664B"/>
</svg>
