<svg width="12" height="12" viewBox="0 0 12 12" fill="none" xmlns="http://www.w3.org/2000/svg">
<rect width="12" height="12" rx="2" fill="url(#paint0_linear_3003_17126)"/>
<g clip-path="url(#clip0_3003_17126)">
<path d="M6.0026 1.83594C3.7026 1.83594 1.83594 3.7026 1.83594 6.0026C1.83594 8.3026 3.7026 10.1693 6.0026 10.1693C8.3026 10.1693 10.1693 8.3026 10.1693 6.0026C10.1693 3.7026 8.3026 1.83594 6.0026 1.83594ZM6.0026 9.33594C4.1651 9.33594 2.66927 7.8401 2.66927 6.0026C2.66927 4.1651 4.1651 2.66927 6.0026 2.66927C7.8401 2.66927 9.33594 4.1651 9.33594 6.0026C9.33594 7.8401 7.8401 9.33594 6.0026 9.33594ZM7.61927 4.45677L5.16927 6.90677L4.38594 6.12344C4.22344 5.96094 3.96094 5.96094 3.79844 6.12344C3.63594 6.28594 3.63594 6.54844 3.79844 6.71094L4.8776 7.7901C5.0401 7.9526 5.3026 7.9526 5.4651 7.7901L8.21094 5.04427C8.37344 4.88177 8.37344 4.61927 8.21094 4.45677C8.04844 4.29427 7.78177 4.29427 7.61927 4.45677Z" fill="#ECEEED"/>
</g>
<defs>
<linearGradient id="paint0_linear_3003_17126" x1="0" y1="0" x2="12" y2="12" gradientUnits="userSpaceOnUse">
<stop stop-color="#058A60"/>
<stop offset="1" stop-color="#00664B"/>
</linearGradient>
<clipPath id="clip0_3003_17126">
<rect width="10" height="10" fill="white" transform="translate(1 1)"/>
</clipPath>
</defs>
</svg>
