<svg width="15" height="13" viewBox="0 0 15 13" fill="none" xmlns="http://www.w3.org/2000/svg">
<g clip-path="url(#clip0_488_4787)">
<path d="M3.27511 2.64016H12.23C12.3346 2.64012 12.4391 2.64614 12.5429 2.65819C12.5077 2.43418 12.4229 2.21896 12.2936 2.0255C12.1643 1.83204 11.9931 1.66434 11.7904 1.53252C11.5877 1.4007 11.3577 1.30749 11.1143 1.2585C10.8708 1.20951 10.6189 1.20576 10.3738 1.24748L3.00926 2.38828H3.00087C2.53859 2.46849 2.1275 2.7058 1.85156 3.05174C2.26729 2.78345 2.76495 2.63956 3.27511 2.64016Z" fill="white"/>
<path d="M12.2303 3.25H3.27535C2.80052 3.25047 2.34527 3.42183 2.00951 3.72647C1.67375 4.03112 1.48489 4.44417 1.48438 4.875V9.75C1.48489 10.1808 1.67375 10.5939 2.00951 10.8985C2.34527 11.2032 2.80052 11.3745 3.27535 11.375H12.2303C12.7051 11.3745 13.1603 11.2032 13.4961 10.8985C13.8319 10.5939 14.0207 10.1808 14.0212 9.75V4.875C14.0207 4.44417 13.8319 4.03112 13.4961 3.72647C13.1603 3.42183 12.7051 3.25047 12.2303 3.25ZM10.901 8.125C10.7239 8.125 10.5508 8.07735 10.4035 7.98807C10.2562 7.89879 10.1415 7.77189 10.0737 7.62343C10.0059 7.47496 9.98817 7.3116 10.0227 7.15399C10.0573 6.99638 10.1426 6.8516 10.2678 6.73797C10.393 6.62434 10.5526 6.54696 10.7263 6.51561C10.9 6.48426 11.0801 6.50035 11.2437 6.56185C11.4073 6.62334 11.5472 6.72748 11.6456 6.8611C11.744 6.99471 11.7965 7.1518 11.7965 7.3125C11.7965 7.52799 11.7022 7.73465 11.5342 7.88702C11.3663 8.0394 11.1385 8.125 10.901 8.125Z" fill="white"/>
<path d="M1.5 6.58594V4.05957C1.5 3.50936 1.83581 2.58691 3.00134 2.38709C3.99058 2.21875 4.97002 2.21875 4.97002 2.21875C4.97002 2.21875 5.61366 2.625 5.08196 2.625C4.55026 2.625 4.56425 3.24707 5.08196 3.24707C5.59966 3.24707 5.08196 3.84375 5.08196 3.84375L2.99715 5.98926L1.5 6.58594Z" fill="white"/>
</g>
<defs>
<clipPath id="clip0_488_4787">
<rect width="14.3278" height="13" fill="white" transform="translate(0.601562)"/>
</clipPath>
</defs>
</svg>
