<svg width="16" height="13" viewBox="0 0 16 13" fill="none" xmlns="http://www.w3.org/2000/svg">
<path d="M5.68956 11.375C6.2171 11.375 6.64475 11.0112 6.64475 10.5625C6.64475 10.1138 6.2171 9.75 5.68956 9.75C5.16203 9.75 4.73438 10.1138 4.73438 10.5625C4.73438 11.0112 5.16203 11.375 5.68956 11.375Z" fill="white"/>
<path d="M12.3771 11.375C12.9046 11.375 13.3323 11.0112 13.3323 10.5625C13.3323 10.1138 12.9046 9.75 12.3771 9.75C11.8495 9.75 11.4219 10.1138 11.4219 10.5625C11.4219 11.0112 11.8495 11.375 12.3771 11.375Z" fill="white"/>
<path d="M14.0708 3.06668C14.0037 2.99687 13.9191 2.94064 13.8233 2.90208C13.7275 2.86352 13.6228 2.84359 13.5168 2.84375H4.43201L4.24903 1.96066C4.22952 1.8666 4.17167 1.78139 4.08563 1.72C3.9996 1.65862 3.89089 1.62498 3.7786 1.625H1.86822C1.74155 1.625 1.62008 1.6678 1.53051 1.74399C1.44094 1.82017 1.39063 1.92351 1.39062 2.03125C1.39063 2.13899 1.44094 2.24233 1.53051 2.31851C1.62008 2.3947 1.74155 2.4375 1.86822 2.4375H3.37802L4.74095 9.00808C4.76046 9.10215 4.81831 9.18736 4.90435 9.24874C4.99038 9.31013 5.09909 9.34377 5.21138 9.34375H12.8529C12.9796 9.34375 13.101 9.30095 13.1906 9.22476C13.2802 9.14857 13.3305 9.04524 13.3305 8.9375C13.3305 8.82975 13.2802 8.72642 13.1906 8.65024C13.101 8.57405 12.9796 8.53125 12.8529 8.53125H5.61196L5.44361 7.71875H12.6571C12.8227 7.71857 12.9832 7.66972 13.1113 7.58047C13.2395 7.49122 13.3274 7.36704 13.3603 7.22896L14.22 3.57271C14.2407 3.48423 14.2381 3.39293 14.2123 3.30542C14.1865 3.21791 14.1381 3.13637 14.0708 3.06668Z" fill="white"/>
</svg>
