<svg width="16" height="13" viewBox="0 0 16 13" fill="none" xmlns="http://www.w3.org/2000/svg">
<path d="M14.2552 0.966708C14.2498 0.944252 14.2369 0.923583 14.2181 0.907124C14.1994 0.890664 14.1755 0.879097 14.1493 0.873778C12.401 0.510185 8.36141 1.80587 6.17283 3.66675C5.78248 3.9961 5.42662 4.35377 5.10929 4.73569C4.43439 4.68491 3.75949 4.72731 3.18428 4.94059C1.56136 5.54819 1.08884 7.13358 0.957202 7.81557C0.949735 7.8529 0.952552 7.89119 0.96543 7.92744C0.978308 7.96368 1.0009 7.99689 1.03142 8.02446C1.06194 8.05202 1.09956 8.07318 1.14133 8.08628C1.1831 8.09938 1.22786 8.10406 1.27212 8.09995L3.87829 7.85544C3.88015 8.02257 3.89201 8.18952 3.91381 8.35563C3.92693 8.47098 3.98712 8.57879 4.08395 8.66032L5.09317 9.51674C5.18911 9.599 5.31579 9.65019 5.45137 9.66147C5.64556 9.67995 5.84073 9.69003 6.03612 9.69169L5.75016 11.9057C5.74539 11.9434 5.75093 11.9814 5.76636 12.0169C5.78178 12.0524 5.80666 12.0844 5.83904 12.1104C5.87143 12.1363 5.91045 12.1555 5.95303 12.1665C5.99561 12.1775 6.0406 12.1799 6.08448 12.1736C6.88475 12.0644 8.75184 11.6625 9.46197 10.282C9.7127 9.79274 9.76404 9.22145 9.70614 8.65016C10.1562 8.38022 10.5778 8.07743 10.9661 7.74524C13.1615 5.88716 14.6761 2.52772 14.2552 0.966708ZM8.77572 5.52864C8.57525 5.35823 8.4387 5.14107 8.38334 4.90463C8.32798 4.6682 8.3563 4.4231 8.46471 4.20036C8.57313 3.97762 8.75677 3.78723 8.99241 3.65327C9.22805 3.51932 9.5051 3.44782 9.78852 3.44782C10.0719 3.44782 10.349 3.51932 10.5846 3.65327C10.8203 3.78723 11.0039 3.97762 11.1123 4.20036C11.2207 4.4231 11.2491 4.6682 11.1937 4.90463C11.1383 5.14107 11.0018 5.35823 10.8013 5.52864C10.6684 5.64188 10.5105 5.73171 10.3367 5.793C10.1629 5.8543 9.97665 5.88585 9.78852 5.88585C9.60039 5.88585 9.4141 5.8543 9.24032 5.793C9.06653 5.73171 8.90866 5.64188 8.77572 5.52864Z" fill="white"/>
<path d="M5.0314 10.1418C4.86782 10.2812 4.60544 10.3355 4.28964 10.382C3.58011 10.4848 2.95356 9.96328 3.08102 9.35315C3.12968 9.12184 3.27355 8.7976 3.3631 8.72143C3.38267 8.7051 3.3957 8.68394 3.40034 8.66096C3.40497 8.63797 3.40097 8.61433 3.38891 8.59339C3.37685 8.57245 3.35733 8.55527 3.33314 8.5443C3.30895 8.53333 3.28131 8.52912 3.25415 8.53227C2.85738 8.57356 2.48825 8.72658 2.20553 8.96695C1.50377 9.5644 1.4375 11.7812 1.4375 11.7812C1.4375 11.7812 4.04517 11.7249 4.74693 11.1274C5.0304 10.8872 5.21052 10.5727 5.25826 10.2347C5.2693 10.1286 5.11737 10.0654 5.0314 10.1418Z" fill="white"/>
</svg>
