<svg width="26" height="26" viewBox="0 0 26 26" fill="none" xmlns="http://www.w3.org/2000/svg">
<g clip-path="url(#clip0_2978_16572)">
<path d="M21.6693 8.66406H4.33594V6.4974H21.6693V8.66406ZM19.5026 2.16406H6.5026V4.33073H19.5026V2.16406ZM11.1739 22.8557L7.59894 19.2807L9.1156 17.7641L11.1739 19.8224L16.9156 14.0807L18.4323 15.5974L11.1739 22.8557Z" fill="white"/>
<path d="M23.8333 10.8359H2.16667C1.59203 10.8359 1.04093 11.0642 0.634602 11.4705C0.228273 11.8769 0 12.428 0 13.0026L0 23.8359C0 24.4106 0.228273 24.9617 0.634602 25.368C1.04093 25.7743 1.59203 26.0026 2.16667 26.0026H23.8333C24.408 26.0026 24.9591 25.7743 25.3654 25.368C25.7717 24.9617 26 24.4106 26 23.8359V13.0026C26 12.428 25.7717 11.8769 25.3654 11.4705C24.9591 11.0642 24.408 10.8359 23.8333 10.8359ZM23.8333 23.8359H2.16667V13.0026H23.8333V23.8359Z" fill="white"/>
</g>
<defs>
<clipPath id="clip0_2978_16572">
<rect width="26" height="26" fill="white"/>
</clipPath>
</defs>
</svg>
