<svg width="21" height="21" viewBox="0 0 21 21" fill="none" xmlns="http://www.w3.org/2000/svg">
<path d="M14 1C14 3.828 14 5.243 14.879 6.121C15.757 7 17.172 7 20 7M14 20C14 17.172 14 15.757 14.879 14.879C15.757 14 17.172 14 20 14M7 1C7 3.828 7 5.243 6.121 6.121C5.243 7 3.828 7 1 7M7 20C7 17.172 7 15.757 6.121 14.879C5.243 14 3.828 14 1 14M10.5 1V3M20 10.5H18M10.5 18V20M3 10.5H1M13.5 10.5C13.5 11.2956 13.1839 12.0587 12.6213 12.6213C12.0587 13.1839 11.2956 13.5 10.5 13.5C9.70435 13.5 8.94129 13.1839 8.37868 12.6213C7.81607 12.0587 7.5 11.2956 7.5 10.5C7.5 9.70435 7.81607 8.94129 8.37868 8.37868C8.94129 7.81607 9.70435 7.5 10.5 7.5C11.2956 7.5 12.0587 7.81607 12.6213 8.37868C13.1839 8.94129 13.5 9.70435 13.5 10.5Z" stroke="white" stroke-width="1.5" stroke-linecap="round" stroke-linejoin="round"/>
</svg>
