<svg width="15" height="15" viewBox="0 0 15 15" fill="none" xmlns="http://www.w3.org/2000/svg">
<path d="M8.74189 7.26504C8.76498 7.26506 8.78756 7.25826 8.80679 7.24549C8.82603 7.23273 8.84107 7.21456 8.85002 7.19328C8.85897 7.172 8.86143 7.14855 8.8571 7.12588C8.85277 7.1032 8.84184 7.08231 8.82568 7.06582L6.52881 4.73027C6.51249 4.7137 6.4916 4.70236 6.46881 4.69769C6.44602 4.69303 6.42236 4.69525 6.40084 4.70408C6.37931 4.71291 6.36091 4.72794 6.34796 4.74727C6.33501 4.76659 6.32811 4.78933 6.32813 4.8126V6.91348C6.32813 7.00672 6.36516 7.09614 6.4311 7.16207C6.49703 7.228 6.58645 7.26504 6.67969 7.26504H8.74189Z" fill="#2D3748"/>
<path d="M5.77148 7.82227C5.65115 7.70355 5.55554 7.56216 5.49017 7.40628C5.42479 7.25039 5.39096 7.0831 5.39062 6.91406V4.21875H3.28125C2.78442 4.22022 2.30836 4.41823 1.95705 4.76955C1.60573 5.12086 1.40772 5.59692 1.40625 6.09375V12.6562C1.40625 13.1535 1.60379 13.6304 1.95542 13.9821C2.30706 14.3337 2.78397 14.5312 3.28125 14.5312H7.5C7.99728 14.5312 8.47419 14.3337 8.82582 13.9821C9.17745 13.6304 9.375 13.1535 9.375 12.6562V8.20312H6.67969C6.51063 8.20288 6.34331 8.1691 6.18741 8.10372C6.03152 8.03834 5.89014 7.94268 5.77148 7.82227Z" fill="#2D3748"/>
<path d="M10.8984 3.51504H12.9606C12.9837 3.51506 13.0063 3.50826 13.0255 3.49549C13.0448 3.48273 13.0598 3.46456 13.0688 3.44328C13.0777 3.422 13.0802 3.39855 13.0759 3.37588C13.0715 3.3532 13.0606 3.33231 13.0444 3.31582L10.7476 0.980273C10.7312 0.963699 10.7104 0.952357 10.6876 0.947693C10.6648 0.943028 10.6411 0.945252 10.6196 0.95408C10.5981 0.962909 10.5797 0.977943 10.5667 0.997268C10.5538 1.01659 10.5469 1.03933 10.5469 1.0626V3.16347C10.5469 3.25672 10.5839 3.34614 10.6498 3.41207C10.7158 3.478 10.8052 3.51504 10.8984 3.51504Z" fill="#2D3748"/>
<path d="M10.8984 4.45312C10.5574 4.45052 10.231 4.31387 9.98981 4.07269C9.74863 3.8315 9.61198 3.50514 9.60937 3.16406V0.46875H6.44531C5.97928 0.469293 5.53249 0.654665 5.20295 0.984201C4.87341 1.31374 4.68804 1.76053 4.6875 2.22656V3.28125H5.92148C6.07899 3.28188 6.23482 3.31362 6.38002 3.37466C6.52522 3.4357 6.65693 3.52482 6.76758 3.63691L9.96562 6.88887C10.1887 7.11524 10.3133 7.42063 10.3122 7.73848V11.7187H11.8664C12.8188 11.7187 13.5935 10.9301 13.5935 9.96093V4.45312H10.8984Z" fill="black"/>
</svg>
